<svg width="52" height="58" viewBox="0 0 52 58" fill="none" xmlns="http://www.w3.org/2000/svg">
<g filter="url(#filter0_d_1528_2185)">
<rect x="0.395996" width="50.9406" height="56" rx="8" fill="#FF4B4C"/>
</g>
<path opacity="0.2" d="M36 23C36 25.6522 34.9464 28.1957 33.0711 30.0711C31.1957 31.9464 28.6522 33 26 33C23.3478 33 20.8043 31.9464 18.9289 30.0711C17.0536 28.1957 16 25.6522 16 23C16 19.1788 17.8025 15.7175 19.875 13L24 17L27.2838 8C29.9825 10.24 36 16.0188 36 23Z" fill="white"/>
<path d="M32.9862 24.1673C32.7269 25.6157 32.0301 26.9498 30.9896 27.9902C29.949 29.0305 28.6147 29.7271 27.1663 29.986C27.1113 29.9949 27.0557 29.9995 27 29.9998C26.7492 29.9997 26.5075 29.9054 26.323 29.7355C26.1384 29.5656 26.0245 29.3326 26.0037 29.0826C25.9829 28.8326 26.0569 28.584 26.2108 28.3859C26.3648 28.1879 26.5876 28.055 26.835 28.0135C28.9062 27.6648 30.6637 25.9073 31.015 23.8323C31.0594 23.5707 31.2059 23.3375 31.4223 23.184C31.6387 23.0304 31.9072 22.9691 32.1688 23.0135C32.4303 23.058 32.6635 23.2045 32.8171 23.4209C32.9706 23.6372 33.0319 23.9057 32.9875 24.1673H32.9862ZM37 22.9998C37 25.9172 35.8411 28.7151 33.7782 30.778C31.7153 32.8409 28.9174 33.9998 26 33.9998C23.0826 33.9998 20.2847 32.8409 18.2218 30.778C16.1589 28.7151 15 25.9172 15 22.9998C15 19.5098 16.375 15.941 19.0825 12.3935C19.1682 12.2812 19.2767 12.1883 19.4009 12.121C19.5252 12.0537 19.6622 12.0134 19.8031 12.0029C19.944 11.9924 20.0856 12.0118 20.2184 12.06C20.3512 12.1082 20.4723 12.1839 20.5737 12.2823L23.5887 15.2085L26.3388 7.6573C26.3937 7.50669 26.484 7.3715 26.6022 7.26312C26.7203 7.15474 26.8628 7.07636 27.0175 7.03457C27.1723 6.99278 27.3349 6.98882 27.4915 7.02301C27.6481 7.05721 27.7942 7.12856 27.9175 7.23105C30.6512 9.4998 37 15.5685 37 22.9998ZM35 22.9998C35 17.2385 30.5262 12.2598 27.7237 9.70855L24.94 17.3423C24.8829 17.4991 24.7874 17.6391 24.6623 17.7495C24.5372 17.86 24.3865 17.9374 24.2238 17.9747C24.0612 18.0119 23.8918 18.0079 23.7311 17.963C23.5704 17.918 23.4235 17.8336 23.3038 17.7173L20.0075 14.5198C18.0112 17.401 17 20.2498 17 22.9998C17 25.3867 17.9482 27.6759 19.636 29.3638C21.3239 31.0516 23.6131 31.9998 26 31.9998C28.3869 31.9998 30.6761 31.0516 32.364 29.3638C34.0518 27.6759 35 25.3867 35 22.9998Z" fill="white"/>
<path d="M8.09226 49.0332H11.4858V50H6.9155V42.8906H8.09226V49.0332ZM16.7585 46.8115H13.8191V49.0332H17.2517V50H12.6423V42.8906H17.2273V43.8623H13.8191V45.8643H16.7585V46.8115ZM20.039 50L17.8515 42.8906H19.1357L20.4882 47.8125L20.6054 48.2373L20.7275 47.8076L22.0898 42.8906H23.3691L21.1816 50H20.039ZM28.2902 46.8115H25.3508V49.0332H28.7834V50H24.174V42.8906H28.759V43.8623H25.3508V45.8643H28.2902V46.8115ZM31.1557 49.0332H34.5493V50H29.9789V42.8906H31.1557V49.0332ZM42.6728 45.918H43.371C43.5793 45.918 43.7616 45.8903 43.9179 45.835C44.0741 45.7764 44.2027 45.695 44.3036 45.5908C44.398 45.4997 44.4696 45.3874 44.5185 45.2539C44.5706 45.1172 44.5966 44.9707 44.5966 44.8145C44.5966 44.6452 44.5722 44.4938 44.5234 44.3604C44.4778 44.2269 44.4094 44.113 44.3183 44.0186C44.2271 43.9307 44.1116 43.8623 43.9716 43.8135C43.8349 43.7646 43.677 43.7402 43.498 43.7402C43.3385 43.7402 43.1903 43.7646 43.0536 43.8135C42.9202 43.859 42.8046 43.9258 42.707 44.0137C42.606 44.1016 42.5263 44.2074 42.4677 44.3311C42.4124 44.4548 42.3847 44.5931 42.3847 44.7461H41.2177C41.2177 44.4629 41.2747 44.2025 41.3886 43.9648C41.5025 43.7272 41.6604 43.5205 41.8622 43.3447C42.064 43.1722 42.3017 43.0371 42.5751 42.9395C42.8518 42.8418 43.1545 42.793 43.4833 42.793C43.8186 42.793 44.1262 42.8369 44.4062 42.9248C44.6894 43.0094 44.9303 43.1364 45.1288 43.3057C45.3306 43.4782 45.4869 43.6898 45.5976 43.9404C45.7083 44.1911 45.7636 44.4824 45.7636 44.8145C45.7636 44.9609 45.7408 45.1074 45.6952 45.2539C45.6529 45.4004 45.5878 45.542 45.4999 45.6787C45.412 45.8122 45.3014 45.9375 45.1679 46.0547C45.0344 46.1719 44.8782 46.2712 44.6991 46.3525C44.9107 46.4242 45.0898 46.5186 45.2362 46.6357C45.386 46.7497 45.5081 46.8783 45.6025 47.0215C45.6969 47.168 45.7652 47.3258 45.8075 47.4951C45.8499 47.6611 45.871 47.8337 45.871 48.0127C45.871 48.3447 45.8092 48.641 45.6855 48.9014C45.565 49.1585 45.399 49.375 45.1874 49.5508C44.9726 49.7298 44.7187 49.8665 44.4257 49.9609C44.136 50.0521 43.8219 50.0977 43.4833 50.0977C43.1773 50.0977 42.8827 50.0553 42.5995 49.9707C42.3163 49.8861 42.0673 49.7591 41.8525 49.5898C41.6376 49.4206 41.4651 49.2122 41.3349 48.9648C41.2079 48.7142 41.1445 48.4229 41.1445 48.0908H42.3114C42.3114 48.2471 42.3391 48.3919 42.3945 48.5254C42.453 48.6556 42.5361 48.7663 42.6435 48.8574C42.7476 48.9518 42.8713 49.0251 43.0146 49.0771C43.1611 49.1292 43.3222 49.1553 43.498 49.1553C43.6868 49.1553 43.856 49.1309 44.0058 49.082C44.1588 49.0299 44.2874 48.9535 44.3915 48.8525C44.4924 48.7581 44.5689 48.641 44.621 48.501C44.6764 48.3577 44.704 48.195 44.704 48.0127C44.704 47.8076 44.6731 47.6318 44.6112 47.4854C44.5494 47.3389 44.4599 47.2168 44.3427 47.1191C44.2255 47.0247 44.0839 46.9548 43.9179 46.9092C43.7551 46.8604 43.5728 46.8359 43.371 46.8359H42.6728V45.918Z" fill="white"/>
<defs>
<filter id="filter0_d_1528_2185" x="0.395996" y="0" width="50.9404" height="58" filterUnits="userSpaceOnUse" color-interpolation-filters="sRGB">
<feFlood flood-opacity="0" result="BackgroundImageFix"/>
<feColorMatrix in="SourceAlpha" type="matrix" values="0 0 0 0 0 0 0 0 0 0 0 0 0 0 0 0 0 0 127 0" result="hardAlpha"/>
<feOffset dy="2"/>
<feComposite in2="hardAlpha" operator="out"/>
<feColorMatrix type="matrix" values="0 0 0 0 1 0 0 0 0 0.141176 0 0 0 0 0.258824 0 0 0 0.8 0"/>
<feBlend mode="normal" in2="BackgroundImageFix" result="effect1_dropShadow_1528_2185"/>
<feBlend mode="normal" in="SourceGraphic" in2="effect1_dropShadow_1528_2185" result="shape"/>
</filter>
</defs>
</svg>
