<svg width="51" height="58" viewBox="0 0 51 58" fill="none" xmlns="http://www.w3.org/2000/svg">
<g filter="url(#filter0_d_1307_40957)">
<rect x="0.230957" width="50.132" height="56" rx="8" fill="#8BC34A"/>
</g>
<path opacity="0.2" d="M35 24L30 29L22 27L15 22L19 14L26 12L33 14H28L22.2925 19.5363C22.1864 19.6423 22.1055 19.7709 22.0558 19.9124C22.0062 20.054 21.989 20.2049 22.0055 20.354C22.0221 20.5031 22.072 20.6465 22.1515 20.7737C22.2311 20.9009 22.3382 21.0086 22.465 21.0888C24.6538 22.4875 27.625 22.3912 30 20L35 24Z" fill="white"/>
<path d="M24.97 32.2426C24.9159 32.459 24.7911 32.651 24.6154 32.7883C24.4396 32.9255 24.223 33.0001 24 33.0001C23.9158 33.0005 23.8318 32.9905 23.75 32.9701L19.75 31.9701C19.6387 31.9422 19.5329 31.8952 19.4375 31.8314L16.4375 29.8314C16.2169 29.6842 16.0638 29.4554 16.0118 29.1953C15.9599 28.9352 16.0134 28.6651 16.1606 28.4445C16.3078 28.2239 16.5366 28.0708 16.7967 28.0188C17.0568 27.9669 17.3269 28.0204 17.5475 28.1676L20.4025 30.0714L24.235 31.0301C24.3631 31.0612 24.4837 31.1172 24.59 31.195C24.6964 31.2729 24.7863 31.3709 24.8546 31.4836C24.9229 31.5963 24.9682 31.7213 24.988 31.8516C25.0078 31.9819 25.0017 32.1148 24.97 32.2426ZM41.5563 20.1851C41.4742 20.4344 41.3436 20.6649 41.172 20.8633C41.0003 21.0618 40.7911 21.2243 40.5563 21.3414L37.5963 22.8214L30.7113 29.7076C30.5891 29.8297 30.4373 29.9181 30.2709 29.9641C30.1044 30.0101 29.9288 30.0122 29.7613 29.9701L21.7613 27.9701C21.6396 27.9396 21.5247 27.8866 21.4225 27.8139L14.4825 22.8589L11.4475 21.3414C10.9732 21.1043 10.6124 20.6885 10.4446 20.1854C10.2768 19.6824 10.3156 19.1333 10.5525 18.6589L13.6588 12.4476C13.8959 11.9733 14.3117 11.6126 14.8147 11.4447C15.3177 11.2769 15.8668 11.3157 16.3413 11.5526L19.0988 12.9276L25.7238 11.0351C25.9035 10.9837 26.094 10.9837 26.2738 11.0351L32.8988 12.9276L35.6563 11.5526C36.1307 11.3157 36.6798 11.2769 37.1828 11.4447C37.6859 11.6126 38.1017 11.9733 38.3388 12.4476L41.445 18.6589C41.5635 18.8933 41.6343 19.1489 41.6534 19.4109C41.6725 19.6728 41.6395 19.936 41.5563 20.1851ZM35.7838 21.8026L32.3825 15.0001H28.405L23 20.2501C24.5825 21.2614 27.0638 21.5401 29.29 19.2964C29.4639 19.1211 29.6964 19.0164 29.9429 19.0023C30.1894 18.9882 30.4323 19.0658 30.625 19.2201L34.9263 22.6664L35.7838 21.8026ZM12.3413 19.5526L14.5525 20.6589L17.6588 14.4476L15.4475 13.3414L12.3413 19.5526ZM33.5 24.0826L30.0363 21.3089C27.5938 23.3089 24.4925 23.5726 21.9225 21.9339C21.6697 21.7731 21.4563 21.5575 21.298 21.3031C21.1396 21.0488 21.0405 20.7621 21.0079 20.4642C20.9752 20.1664 21.0099 19.8651 21.1094 19.5824C21.2088 19.2998 21.3705 19.0431 21.5825 18.8314C21.5855 18.8277 21.5889 18.8244 21.5925 18.8214L27.2 13.3826L26 13.0401L19.6975 14.8414L16.2763 21.6826L22.4263 26.0764L29.6938 27.8926L33.5 24.0826ZM39.655 19.5526L36.5525 13.3414L34.3413 14.4476L37.4475 20.6589L39.655 19.5526Z" fill="white"/>
<path d="M7.51487 49.0332H10.9084V50H6.33811V42.8906H7.51487V49.0332ZM16.1811 46.8115H13.2417V49.0332H16.6743V50H12.0649V42.8906H16.6499V43.8623H13.2417V45.8643H16.1811V46.8115ZM19.4616 50L17.2741 42.8906H18.5583L19.9108 47.8125L20.028 48.2373L20.1501 47.8076L21.5124 42.8906H22.7917L20.6042 50H19.4616ZM27.7128 46.8115H24.7734V49.0332H28.206V50H23.5966V42.8906H28.1816V43.8623H24.7734V45.8643H27.7128V46.8115ZM30.5783 49.0332H33.9719V50H29.4016V42.8906H30.5783V49.0332ZM44.0192 50H42.8425V44.3359L41.0212 45.0049V43.9746L43.946 42.8906H44.0192V50Z" fill="white"/>
<defs>
<filter id="filter0_d_1307_40957" x="0.230957" y="0" width="50.1318" height="58" filterUnits="userSpaceOnUse" color-interpolation-filters="sRGB">
<feFlood flood-opacity="0" result="BackgroundImageFix"/>
<feColorMatrix in="SourceAlpha" type="matrix" values="0 0 0 0 0 0 0 0 0 0 0 0 0 0 0 0 0 0 127 0" result="hardAlpha"/>
<feOffset dy="2"/>
<feComposite in2="hardAlpha" operator="out"/>
<feColorMatrix type="matrix" values="0 0 0 0 0.243842 0 0 0 0 0.5625 0 0 0 0 0 0 0 0 0.8 0"/>
<feBlend mode="normal" in2="BackgroundImageFix" result="effect1_dropShadow_1307_40957"/>
<feBlend mode="normal" in="SourceGraphic" in2="effect1_dropShadow_1307_40957" result="shape"/>
</filter>
</defs>
</svg>
