<svg width="52" height="58" viewBox="0 0 52 58" fill="none" xmlns="http://www.w3.org/2000/svg">
<g filter="url(#filter0_d_1528_2186)">
<rect x="0.395996" width="50.9406" height="56" rx="8" fill="#FBB237"/>
</g>
<path d="M8.09226 49.0332H11.4858V50H6.9155V42.8906H8.09226V49.0332ZM16.7585 46.8115H13.8191V49.0332H17.2517V50H12.6423V42.8906H17.2273V43.8623H13.8191V45.8643H16.7585V46.8115ZM20.039 50L17.8515 42.8906H19.1357L20.4882 47.8125L20.6054 48.2373L20.7275 47.8076L22.0898 42.8906H23.3691L21.1816 50H20.039ZM28.2902 46.8115H25.3508V49.0332H28.7834V50H24.174V42.8906H28.759V43.8623H25.3508V45.8643H28.2902V46.8115ZM31.1557 49.0332H34.5493V50H29.9789V42.8906H31.1557V49.0332ZM45.9638 50H41.1933V49.1895L43.5077 46.6699C43.6998 46.4583 43.8609 46.2695 43.9911 46.1035C44.1213 45.9342 44.2271 45.7796 44.3085 45.6396C44.3866 45.4997 44.442 45.3695 44.4745 45.249C44.5103 45.1253 44.5282 45.0016 44.5282 44.8779C44.5282 44.7119 44.5038 44.5605 44.455 44.4238C44.4062 44.2871 44.3346 44.1699 44.2402 44.0723C44.1458 43.9746 44.0318 43.8981 43.8984 43.8428C43.7681 43.7874 43.6217 43.7598 43.4589 43.7598C43.2506 43.7598 43.0699 43.7891 42.9169 43.8477C42.7639 43.9062 42.637 43.9893 42.5361 44.0967C42.4319 44.2106 42.3538 44.349 42.3017 44.5117C42.2496 44.6712 42.2236 44.8535 42.2236 45.0586H41.0517C41.0517 44.7493 41.1086 44.458 41.2226 44.1846C41.3365 43.9079 41.4993 43.667 41.7109 43.4619C41.9192 43.2568 42.1731 43.0941 42.4726 42.9736C42.7753 42.8532 43.1122 42.793 43.4833 42.793C43.8316 42.793 44.1425 42.8434 44.4159 42.9443C44.6926 43.0452 44.9254 43.1852 45.1142 43.3643C45.2997 43.5433 45.4413 43.7581 45.539 44.0088C45.6366 44.2562 45.6855 44.5296 45.6855 44.8291C45.6855 45.0537 45.648 45.2718 45.5732 45.4834C45.5015 45.6917 45.4023 45.8984 45.2753 46.1035C45.1451 46.3086 44.9905 46.5153 44.8114 46.7236C44.6357 46.932 44.4436 47.1468 44.2353 47.3682L42.6532 49.0576H45.9638V50Z" fill="white"/>
<path opacity="0.2" d="M36 9V29H19C18.2044 29 17.4413 29.3161 16.8787 29.8787C16.3161 30.4413 16 31.2044 16 32V12C16 11.2044 16.3161 10.4413 16.8787 9.87868C17.4413 9.31607 18.2044 9 19 9H24V21L28 18L32 21V9H36Z" fill="white"/>
<path d="M36 8H19C17.9391 8 16.9217 8.42143 16.1716 9.17157C15.4214 9.92172 15 10.9391 15 12V33C15 33.2652 15.1054 33.5196 15.2929 33.7071C15.4804 33.8946 15.7348 34 16 34H34C34.2652 34 34.5196 33.8946 34.7071 33.7071C34.8946 33.5196 35 33.2652 35 33C35 32.7348 34.8946 32.4804 34.7071 32.2929C34.5196 32.1054 34.2652 32 34 32H17C17 31.4696 17.2107 30.9609 17.5858 30.5858C17.9609 30.2107 18.4696 30 19 30H36C36.2652 30 36.5196 29.8946 36.7071 29.7071C36.8946 29.5196 37 29.2652 37 29V9C37 8.73478 36.8946 8.48043 36.7071 8.29289C36.5196 8.10536 36.2652 8 36 8ZM25 10H31V19L28.5987 17.2C28.4257 17.0702 28.2151 17 27.9988 17C27.7824 17 27.5718 17.0702 27.3988 17.2L25 19V10ZM35 28H19C18.2977 27.999 17.6076 28.1841 17 28.5362V12C17 11.4696 17.2107 10.9609 17.5858 10.5858C17.9609 10.2107 18.4696 10 19 10H23V21C23 21.1857 23.0517 21.3678 23.1493 21.5257C23.247 21.6837 23.3867 21.8114 23.5528 21.8944C23.7189 21.9775 23.9048 22.0126 24.0898 21.996C24.2748 21.9793 24.4514 21.9114 24.6 21.8L28 19.25L31.4013 21.8C31.574 21.9296 31.7841 21.9997 32 22C32.1552 21.9998 32.3084 21.9638 32.4475 21.895C32.6136 21.8119 32.7533 21.6841 32.8509 21.526C32.9485 21.3679 33.0001 21.1858 33 21V10H35V28Z" fill="white"/>
<defs>
<filter id="filter0_d_1528_2186" x="0.395996" y="0" width="50.9404" height="58" filterUnits="userSpaceOnUse" color-interpolation-filters="sRGB">
<feFlood flood-opacity="0" result="BackgroundImageFix"/>
<feColorMatrix in="SourceAlpha" type="matrix" values="0 0 0 0 0 0 0 0 0 0 0 0 0 0 0 0 0 0 127 0" result="hardAlpha"/>
<feOffset dy="2"/>
<feComposite in2="hardAlpha" operator="out"/>
<feColorMatrix type="matrix" values="0 0 0 0 0.5625 0 0 0 0 0.3375 0 0 0 0 0 0 0 0 0.8 0"/>
<feBlend mode="normal" in2="BackgroundImageFix" result="effect1_dropShadow_1528_2186"/>
<feBlend mode="normal" in="SourceGraphic" in2="effect1_dropShadow_1528_2186" result="shape"/>
</filter>
</defs>
</svg>
